<svg width="21" height="20" viewBox="0 0 21 20" fill="none" xmlns="http://www.w3.org/2000/svg">
<g clip-path="url(#clip0_209_365)">
<path d="M10.5 0C8.52219 0 6.58879 0.58649 4.9443 1.6853C3.29981 2.78412 2.01809 4.3459 1.26121 6.17317C0.504333 8.00043 0.306299 10.0111 0.692152 11.9509C1.078 13.8907 2.03041 15.6725 3.42894 17.0711C4.82746 18.4696 6.60929 19.422 8.5491 19.8079C10.4889 20.1937 12.4996 19.9957 14.3268 19.2388C16.1541 18.4819 17.7159 17.2002 18.8147 15.5557C19.9135 13.9112 20.5 11.9778 20.5 10C20.4971 7.34872 19.4426 4.80684 17.5679 2.9321C15.6932 1.05736 13.1513 0.00286757 10.5 0V0ZM10.5 18.3333C8.85183 18.3333 7.24066 17.8446 5.87025 16.9289C4.49984 16.0132 3.43174 14.7117 2.80101 13.189C2.17028 11.6663 2.00525 9.99076 2.32679 8.37425C2.64834 6.75774 3.44201 5.27288 4.60745 4.10744C5.77289 2.94201 7.25774 2.14833 8.87425 1.82679C10.4908 1.50525 12.1663 1.67027 13.689 2.301C15.2118 2.93173 16.5132 3.99984 17.4289 5.37025C18.3446 6.74066 18.8333 8.35182 18.8333 10C18.8309 12.2094 17.9522 14.3276 16.3899 15.8899C14.8276 17.4522 12.7094 18.3309 10.5 18.3333Z" fill="black"/>
<path d="M10.4999 8.33362H9.66658C9.44557 8.33362 9.23361 8.42142 9.07733 8.5777C8.92105 8.73398 8.83325 8.94594 8.83325 9.16695C8.83325 9.38797 8.92105 9.59993 9.07733 9.75621C9.23361 9.91249 9.44557 10.0003 9.66658 10.0003H10.4999V15.0003C10.4999 15.2213 10.5877 15.4333 10.744 15.5895C10.9003 15.7458 11.1122 15.8336 11.3332 15.8336C11.5543 15.8336 11.7662 15.7458 11.9225 15.5895C12.0788 15.4333 12.1666 15.2213 12.1666 15.0003V10.0003C12.1666 9.55826 11.991 9.13433 11.6784 8.82177C11.3659 8.50921 10.9419 8.33362 10.4999 8.33362Z" fill="black"/>
<path d="M10.5 6.66638C11.1904 6.66638 11.75 6.10674 11.75 5.41638C11.75 4.72603 11.1904 4.16638 10.5 4.16638C9.80964 4.16638 9.25 4.72603 9.25 5.41638C9.25 6.10674 9.80964 6.66638 10.5 6.66638Z" fill="black"/>
</g>
<defs>
<clipPath id="clip0_209_365">
<rect width="20" height="20" fill="white" transform="translate(0.5)"/>
</clipPath>
</defs>
</svg>
