<svg width="105" height="125" viewBox="0 0 105 125" fill="none" xmlns="http://www.w3.org/2000/svg">
<path d="M104.971 113.001C104.971 119.182 101.319 124.192 96.817 124.192L9.08811 124.152C4.58644 124.152 0.944092 119.143 0.944092 112.962L0.973387 55.2798C0.973387 49.0888 4.6255 44.0793 9.11741 44.0793L96.8561 44.1184C101.358 44.1184 105 49.1376 105 55.3189L104.971 113.001Z" fill="black"/>
<mask id="mask0_209_528" style="mask-type:luminance" maskUnits="userSpaceOnUse" x="0" y="34" width="106" height="94">
<path d="M105 34.7051H0.944092V128H105V34.7051Z" fill="white"/>
</mask>
<g mask="url(#mask0_209_528)">
<path d="M95.2643 74.9369H88.6339V73.062H95.2643C95.8307 73.062 96.9732 72.7886 97.5493 72.4468C97.8813 72.2417 98.0376 72.0269 98.0083 71.939L97.979 71.8121C97.9497 71.6363 97.6372 71.3531 97.0122 71.1481L96.9732 71.1383L54.8664 55.6803C53.597 55.2311 51.6635 55.2311 50.3745 55.6803L27.9931 63.795L28.0127 57.9555C28.0029 57.8579 28.0029 57.7505 28.0029 57.6528C27.8174 57.6138 27.4463 57.5649 26.7627 57.5356C25.6398 57.5552 23.3157 57.5845 22.3099 57.6919L22.4954 65.7187L8.19945 71.1285C7.47684 71.402 7.19365 71.734 7.16436 71.9488C7.13506 72.1539 7.34013 72.3394 7.52566 72.4566C8.19945 72.8374 9.22477 73.062 10.2892 73.062H17.4664V74.9369H10.2794C8.74629 74.9369 7.26201 74.5853 6.20738 73.9799L6.15856 73.9506C5.26018 73.3647 4.80122 72.5542 4.92817 71.7242C5.06488 70.7672 5.91443 69.9274 7.27177 69.4197L20.2104 64.5079L20.0444 57.3599C20.0346 57.1548 20.0151 56.7154 20.4448 56.3443C21.0404 55.817 21.9291 55.7291 26.7432 55.6608H26.7725H26.8018C28.4521 55.7193 30.2098 55.9049 30.2293 57.5063C30.2293 57.6235 30.2293 57.7505 30.2391 57.8676V57.8969L30.2293 60.9339L49.4566 53.9616C51.312 53.2976 53.8899 53.2976 55.7355 53.9616L97.8325 69.4099C99.1312 69.8493 99.971 70.5915 100.157 71.4703C100.43 72.3589 99.9417 73.2866 98.8383 73.9604C97.8423 74.5756 96.231 74.9369 95.2643 74.9369Z" fill="#FCC200"/>
</g>
<path d="M14.3905 112.474C14.2538 112.718 14.039 112.923 13.7558 113.069C13.4726 113.226 13.1211 113.294 12.7012 113.294H11.92V115.149H10.6603V109.984H12.7012C13.1113 109.984 13.4628 110.052 13.746 110.198C14.0292 110.345 14.244 110.54 14.3905 110.784C14.537 111.038 14.6053 111.321 14.6053 111.644C14.5956 111.946 14.5272 112.22 14.3905 112.474ZM13.1406 112.122C13.2578 112.005 13.3164 111.849 13.3164 111.644C13.3164 111.439 13.2578 111.282 13.1406 111.165C13.0234 111.048 12.8476 110.999 12.6035 110.999H11.92V112.298H12.6035C12.8379 112.298 13.0234 112.239 13.1406 112.122Z" fill="#FCC200"/>
<path d="M18.2575 115.149L17.1834 113.196H16.8807V115.149H15.621V109.984H17.7302C18.1403 109.984 18.4821 110.052 18.7751 110.198C19.0583 110.345 19.2731 110.54 19.4196 110.784C19.566 111.028 19.6344 111.312 19.6344 111.614C19.6344 111.956 19.5367 112.269 19.3414 112.532C19.1461 112.806 18.863 112.991 18.4821 113.108L19.6735 115.159H18.2575V115.149ZM16.8807 112.308H17.6619C17.8962 112.308 18.0622 112.249 18.1794 112.142C18.2966 112.025 18.3552 111.868 18.3552 111.663C18.3552 111.468 18.2966 111.312 18.1794 111.204C18.0622 111.087 17.8865 111.038 17.6619 111.038H16.8807V112.308Z" fill="#FCC200"/>
<path d="M22.0463 110.989V112.034H23.7259V113.011H22.0463V114.144H23.9505V115.149H20.7866V109.984H23.9505V110.989H22.0463Z" fill="#FCC200"/>
<path d="M28.1495 113.88C28.335 113.763 28.4815 113.606 28.5889 113.382H29.9755C29.8388 113.88 29.5947 114.28 29.2334 114.593C28.8721 114.905 28.4326 115.091 27.9151 115.159V115.442C28.169 115.442 28.3936 115.511 28.5889 115.647C28.7842 115.784 28.8721 115.999 28.8721 116.272C28.8721 116.555 28.7744 116.761 28.5694 116.907C28.3643 117.054 28.1299 117.122 27.8467 117.122H26.714V116.429H27.6807C27.7784 116.429 27.8565 116.419 27.9053 116.38C27.9542 116.35 27.9834 116.302 27.9834 116.233C27.9834 116.165 27.9542 116.116 27.9053 116.087C27.8565 116.057 27.7784 116.048 27.6807 116.048H27.1632V115.169C26.7238 115.12 26.3332 114.983 25.9914 114.749C25.6496 114.515 25.386 114.212 25.2004 113.831C25.0149 113.45 24.9172 113.03 24.9172 112.562C24.9172 112.054 25.0247 111.595 25.2492 111.195C25.4738 110.794 25.7766 110.482 26.1769 110.257C26.5675 110.032 27.0167 109.925 27.5245 109.925C28.1397 109.925 28.667 110.091 29.0967 110.413C29.5361 110.736 29.829 111.175 29.9755 111.741H28.5889C28.4815 111.527 28.3448 111.361 28.1495 111.253C27.9639 111.136 27.7491 111.087 27.505 111.087C27.1144 111.087 26.8019 111.224 26.5675 111.487C26.3234 111.761 26.2062 112.122 26.2062 112.571C26.2062 113.021 26.3234 113.382 26.5675 113.655C26.8116 113.929 27.1241 114.056 27.505 114.056C27.7393 114.046 27.9542 113.987 28.1495 113.88Z" fill="#FCC200"/>
<path d="M32.2117 114.866C31.8113 114.642 31.4891 114.329 31.245 113.919C31.0106 113.519 30.8837 113.06 30.8837 112.552C30.8837 112.044 31.0008 111.595 31.245 111.194C31.4793 110.794 31.8016 110.482 32.2117 110.257C32.6121 110.032 33.0613 109.915 33.5495 109.915C34.0378 109.915 34.4772 110.032 34.8873 110.257C35.2877 110.482 35.6099 110.794 35.8443 111.194C36.0787 111.595 36.1958 112.054 36.1958 112.552C36.1958 113.06 36.0787 113.509 35.8443 113.919C35.6099 114.319 35.2877 114.642 34.8873 114.866C34.487 115.091 34.0378 115.208 33.5593 115.208C33.071 115.198 32.6218 115.091 32.2117 114.866ZM34.5455 113.646C34.7897 113.372 34.9166 113.011 34.9166 112.552C34.9166 112.093 34.7897 111.732 34.5455 111.458C34.3014 111.185 33.9694 111.048 33.5593 111.048C33.1394 111.048 32.8074 111.185 32.5632 111.448C32.3191 111.722 32.1922 112.083 32.1922 112.542C32.1922 113.001 32.3191 113.362 32.5632 113.636C32.8074 113.909 33.1394 114.046 33.5593 114.046C33.9596 114.056 34.2917 113.919 34.5455 113.646Z" fill="#FCC200"/>
<path d="M43.041 112.952C43.2266 113.187 43.3144 113.45 43.3144 113.753C43.3144 114.183 43.168 114.524 42.8652 114.778C42.5625 115.032 42.1426 115.159 41.6056 115.159H39.2034V109.993H41.5274C42.0548 109.993 42.4649 110.111 42.7578 110.355C43.0508 110.599 43.207 110.921 43.207 111.331C43.207 111.634 43.1289 111.888 42.9727 112.093C42.8164 112.298 42.6016 112.435 42.3379 112.513C42.6114 112.562 42.8555 112.718 43.041 112.952ZM40.4435 112.073H41.2638C41.4689 112.073 41.6251 112.025 41.7423 111.937C41.8497 111.849 41.9083 111.712 41.9083 111.536C41.9083 111.361 41.8497 111.224 41.7423 111.136C41.6349 111.038 41.4689 110.999 41.2638 110.999H40.4435V112.073ZM41.8595 113.987C41.9766 113.89 42.0352 113.753 42.0352 113.567C42.0352 113.382 41.9766 113.245 41.8595 113.138C41.7423 113.03 41.5763 112.981 41.3614 112.981H40.4533V114.124H41.381C41.586 114.134 41.752 114.085 41.8595 113.987Z" fill="#FCC200"/>
<path d="M47.6209 114.241H45.6972L45.3847 115.149H44.0664L45.9315 109.984H47.3865L49.2516 115.149H47.9236L47.6209 114.241ZM47.2986 113.265L46.6541 111.37L46.0194 113.265H47.2986Z" fill="#FCC200"/>
<path d="M51.4584 109.984H50.1987V115.149H51.4584V109.984Z" fill="#FCC200"/>
<path d="M55.9016 115.149L54.847 113.567L53.9193 115.149H52.4937L54.1537 112.523L52.4546 109.984H53.9193L54.9544 111.546L55.8723 109.984H57.298L55.6575 112.591L57.3664 115.149H55.9016Z" fill="#FCC200"/>
<path d="M59.4756 114.866C59.0753 114.642 58.753 114.329 58.5089 113.919C58.2745 113.519 58.1476 113.06 58.1476 112.552C58.1476 112.044 58.2648 111.595 58.5089 111.194C58.7432 110.794 59.0655 110.482 59.4756 110.257C59.876 110.032 60.3252 109.915 60.8134 109.915C61.3017 109.915 61.7411 110.032 62.1512 110.257C62.5516 110.482 62.8738 110.794 63.1082 111.194C63.3426 111.595 63.4598 112.054 63.4598 112.552C63.4598 113.06 63.3426 113.509 63.1082 113.919C62.8738 114.319 62.5516 114.642 62.1512 114.866C61.7509 115.091 61.3017 115.208 60.8232 115.208C60.3447 115.208 59.876 115.091 59.4756 114.866ZM61.7997 113.646C62.0438 113.372 62.1708 113.011 62.1708 112.552C62.1708 112.093 62.0438 111.732 61.7997 111.458C61.5556 111.185 61.2236 111.048 60.8134 111.048C60.3935 111.048 60.0615 111.185 59.8174 111.448C59.5733 111.722 59.4463 112.083 59.4463 112.542C59.4463 113.001 59.5733 113.362 59.8174 113.636C60.0615 113.909 60.3935 114.046 60.8134 114.046C61.2236 114.056 61.5556 113.919 61.7997 113.646Z" fill="#FCC200"/>
<path d="M67.7076 110.99V112.034H69.3969V113.001H67.7076V114.134H69.6117V115.14H66.4479V109.974H69.6117V110.98H67.7076V110.99ZM68.8501 108.949L67.0728 109.691V108.822L68.8501 107.972V108.949Z" fill="#FCC200"/>
<path d="M75.9394 114.241H74.0156L73.7032 115.149H72.3849L74.25 109.984H75.705L77.5701 115.149H76.2421L75.9394 114.241ZM75.6171 113.265L74.9726 111.37L74.3379 113.265H75.6171Z" fill="#FCC200"/>
<path d="M82.1987 116.038L81.5347 115.149C81.3394 115.188 81.1441 115.208 80.9586 115.208C80.4703 115.208 80.0309 115.091 79.6208 114.866C79.2204 114.642 78.8982 114.329 78.654 113.919C78.4197 113.519 78.2927 113.06 78.2927 112.552C78.2927 112.044 78.4099 111.595 78.654 111.194C78.8884 110.794 79.2106 110.482 79.6208 110.257C80.0211 110.032 80.4703 109.915 80.9586 109.915C81.4468 109.915 81.8862 110.032 82.2964 110.257C82.6967 110.482 83.019 110.794 83.2534 111.194C83.4877 111.595 83.6049 112.054 83.6049 112.552C83.6049 112.991 83.517 113.401 83.3315 113.763C83.1557 114.124 82.9018 114.427 82.5796 114.671L83.7123 116.028H82.1987V116.038ZM79.9625 113.646C80.2067 113.919 80.5387 114.056 80.9586 114.056C81.3687 114.056 81.7007 113.919 81.9448 113.646C82.189 113.372 82.3159 113.011 82.3159 112.552C82.3159 112.093 82.189 111.732 81.9448 111.458C81.7007 111.185 81.3687 111.048 80.9586 111.048C80.5387 111.048 80.2067 111.185 79.9625 111.448C79.7184 111.722 79.5915 112.083 79.5915 112.542C79.5915 113.011 79.7087 113.372 79.9625 113.646Z" fill="#FCC200"/>
<path d="M85.9192 109.984V113.079C85.9192 113.392 85.9974 113.626 86.1438 113.792C86.3001 113.958 86.5149 114.046 86.8176 114.046C87.1106 114.046 87.3352 113.958 87.4914 113.792C87.6476 113.626 87.7258 113.392 87.7258 113.079V109.984H88.9854V113.069C88.9854 113.528 88.8878 113.919 88.6925 114.241C88.4972 114.563 88.2335 114.798 87.9015 114.964C87.5695 115.13 87.1985 115.208 86.7981 115.208C86.3977 115.208 86.0266 115.13 85.7044 114.974C85.3822 114.817 85.1283 114.573 84.9427 114.251C84.7572 113.929 84.6595 113.538 84.6595 113.079V109.993H85.9192V109.984Z" fill="#FCC200"/>
<path d="M91.495 109.984H90.2354V115.149H91.495V109.984Z" fill="#FCC200"/>
<path d="M93.2333 115.013C93.0966 114.886 93.0282 114.72 93.0282 114.534C93.0282 114.339 93.0966 114.173 93.2333 114.046C93.37 113.909 93.5555 113.851 93.7703 113.851C93.9852 113.851 94.1609 113.919 94.3074 114.046C94.4441 114.183 94.5222 114.339 94.5222 114.534C94.5222 114.729 94.4539 114.886 94.3074 115.013C94.1707 115.14 93.9852 115.208 93.7703 115.208C93.5457 115.208 93.37 115.149 93.2333 115.013ZM94.4344 109.798L94.2879 113.323H93.2235L93.077 109.798H94.4344Z" fill="#FCC200"/>
<path d="M74.2793 74.0288H64.4655V102.933H74.2793V74.0288Z" fill="#FCC200"/>
<path d="M23.4036 102.943C16.031 103.353 11.5586 98.7148 11.5586 98.7148L18.023 94.838C18.023 94.838 18.0328 95.6876 19.146 96.42C19.2925 96.5176 20.2885 97.1719 21.3334 97.25C22.886 97.3672 23.6379 96.5372 23.8527 95.4239C24.0871 94.1643 24.0578 92.7483 24.0578 92.7483V77.4856C24.0578 77.4856 24.1848 76.5091 23.052 75.5717C21.8802 74.6049 21.0892 73.9897 21.0892 73.9897H33.9107H36.0004C36.0004 73.9897 35.8637 74.1362 34.7896 75.4447C33.94 76.4798 33.9107 77.3294 33.9107 77.3294L33.9302 93.6955C33.9302 93.6955 34.1744 97.9824 31.5769 100.404C29.7996 102.064 27.3291 102.728 23.4036 102.943Z" fill="#FCC200"/>
<path d="M86.427 85.5708H77.2772V102.943H86.427V85.5708Z" fill="#FCC200"/>
<path d="M86.9348 79.6533C86.9348 81.5673 84.6986 83.1297 81.9351 83.1297C79.1716 83.1297 76.9354 81.5771 76.9354 79.6533C76.9354 77.7394 79.1716 76.177 81.9351 76.177C84.6888 76.177 86.9348 77.7296 86.9348 79.6533Z" fill="#FCC200"/>
<path d="M49.3004 82.6316C42.4844 82.6316 36.9574 87.143 36.9574 92.6993C36.9574 98.2556 42.4844 102.767 49.3004 102.767C56.1164 102.767 61.6433 98.2556 61.6433 92.6993C61.6433 87.143 56.1164 82.6316 49.3004 82.6316ZM49.232 97.2303C46.6931 97.2303 44.6327 95.1601 44.6327 92.6114C44.6327 90.0628 46.6931 87.9926 49.232 87.9926C51.7709 87.9926 53.8313 90.0628 53.8313 92.6114C53.8313 95.1601 51.7709 97.2303 49.232 97.2303Z" fill="#FCC200"/>
</svg>
